<svg width="48" height="48" class="hidden">
  <symbol xmlns="http://www.w3.org/2000/svg" viewBox="0 0 48 48" id="icon1">
    <g clip-path="url(#clip0_1_42)">
      <path d="M42.5886 12.5253H37.519V7.45567C37.519 6.55931 37.1629 5.69966 36.5291 5.06583C35.8952 4.43201 35.0356 4.07593 34.1392 4.07593H13.8608C12.9644 4.07593 12.1047 4.43201 11.4709 5.06583C10.8371 5.69966 10.481 6.55931 10.481 7.45567V12.5253H5.41139C4.06684 12.5253 2.77736 13.0594 1.82662 14.0102C0.875886 14.9609 0.341766 16.2504 0.341766 17.5949V41.2531C0.341766 42.1495 0.697846 43.0092 1.33167 43.643C1.9655 44.2768 2.82515 44.6329 3.72151 44.6329H44.2785C45.1748 44.6329 46.0345 44.2768 46.6683 43.643C47.3021 43.0092 47.6582 42.1495 47.6582 41.2531V17.5949C47.6582 16.2504 47.1241 14.9609 46.1734 14.0102C45.2226 13.0594 43.9331 12.5253 42.5886 12.5253ZM13.8608 7.45567H34.1392V12.5253H13.8608V7.45567ZM44.2785 41.2531H3.72151V26.0443H17.2405V34.4936H30.7595V26.0443H44.2785V41.2531ZM20.6202 26.0443H27.3797V31.1139H20.6202V26.0443ZM3.72151 22.6645V17.5949C3.72151 17.1467 3.89955 16.7169 4.21647 16.4C4.53338 16.0831 4.9632 15.905 5.41139 15.905H42.5886C43.0368 15.905 43.4666 16.0831 43.7835 16.4C44.1004 16.7169 44.2785 17.1467 44.2785 17.5949V22.6645H3.72151Z"></path>
    </g>
    <defs>
      <clipPath id="clip0_1_42">
        <rect width="48" height="40.7089" fill="white" transform="translate(0 4)"></rect>
      </clipPath>
    </defs>
  </symbol>

  <symbol xmlns="http://www.w3.org/2000/svg" viewBox="0 0 48 48" id="icon2">
    <g clip-path="url(#clip0_1_50)">
      <path opacity="0.15" d="M43.65 13.7502H4.35004C4.33204 13.7502 4.32004 13.7621 4.32004 13.7799V19.1851C4.32004 22.7294 7.26003 25.6039 10.878 25.6039C13.32 25.6039 15.45 24.3 16.584 22.3619C16.758 22.0597 17.088 21.87 17.442 21.87C17.796 21.87 18.12 22.0597 18.3 22.3619C19.428 24.3 21.558 25.6039 24 25.6039C26.448 25.6039 28.584 24.2941 29.706 22.3501C29.88 22.0537 30.198 21.87 30.54 21.87H30.576C30.924 21.87 31.236 22.0537 31.41 22.3501C32.538 24.2941 34.674 25.6039 37.122 25.6039C40.74 25.6039 43.68 22.7294 43.68 19.1851V13.7799C43.68 13.7621 43.668 13.7502 43.65 13.7502Z" fill="#00A0C1"></path>
      <path d="M46.2 9.48885V1.89659C46.2 0.847537 45.342 0 44.28 0H3.72003C2.65803 0 1.80004 0.847537 1.80004 1.89659V9.48885C0.798037 9.54812 3.71756e-05 10.372 3.71756e-05 11.3795V19.1851C-0.00380525 20.6197 0.290253 22.0398 0.864037 23.3576C1.12204 23.9622 1.44004 24.5311 1.80004 25.0705V45.518C1.80004 46.5612 2.65803 47.4146 3.72003 47.4146H44.28C45.342 47.4146 46.2 46.5671 46.2 45.518V25.0705C46.5657 24.5298 46.879 23.9563 47.136 23.3576C47.706 22.036 48 20.6313 48 19.1851V11.3795C48 10.372 47.202 9.54812 46.2 9.48885ZM6.12003 4.26732H41.88V9.48293H6.12003V4.26732ZM27.84 43.1532H20.16V36.9834H27.84V43.1532ZM41.904 43.1532H31.68V35.0868C31.68 34.0378 30.822 33.1902 29.76 33.1902H18.24C17.178 33.1902 16.32 34.0378 16.32 35.0868V43.1532H6.12003V28.7985C6.29403 28.8814 6.47403 28.9644 6.66003 29.0355C7.99803 29.5927 9.42003 29.8712 10.884 29.8712C12.348 29.8712 13.764 29.5927 15.108 29.0355C15.936 28.6918 16.716 28.2532 17.43 27.7257C17.442 27.7198 17.454 27.7198 17.466 27.7257C18.1822 28.2554 18.9622 28.6954 19.788 29.0355C21.126 29.5927 22.548 29.8712 24.012 29.8712C25.476 29.8712 26.892 29.5927 28.236 29.0355C29.064 28.6918 29.844 28.2532 30.558 27.7257C30.57 27.7198 30.582 27.7198 30.594 27.7257C31.3102 28.2554 32.0902 28.6954 32.916 29.0355C34.254 29.5927 35.676 29.8712 37.14 29.8712C38.604 29.8712 40.02 29.5927 41.364 29.0355C41.544 28.9585 41.724 28.8814 41.904 28.7985V43.1532V43.1532ZM43.68 19.1851C43.68 22.7294 40.74 25.6039 37.122 25.6039C34.674 25.6039 32.538 24.2941 31.41 22.3501C31.236 22.0537 30.924 21.87 30.576 21.87H30.54C30.198 21.87 29.88 22.0537 29.706 22.3501C29.1304 23.3417 28.2992 24.1652 27.297 24.7367C26.2948 25.3082 25.1572 25.6074 24 25.6039C21.558 25.6039 19.428 24.3 18.3 22.3619C18.12 22.0597 17.796 21.87 17.442 21.87C17.088 21.87 16.758 22.0597 16.584 22.3619C16.005 23.3498 15.1728 24.1695 14.1711 24.7387C13.1694 25.3078 12.0336 25.6062 10.878 25.6039C7.26003 25.6039 4.32003 22.7294 4.32003 19.1851V13.7799C4.32003 13.7621 4.33203 13.7502 4.35003 13.7502H43.65C43.668 13.7502 43.68 13.7621 43.68 13.7799V19.1851Z"></path>
    </g>
    <defs>
      <clipPath id="clip0_1_50">
        <rect width="48" height="47.4146" fill="white"></rect>
      </clipPath>
    </defs>
  </symbol>

  <symbol xmlns="http://www.w3.org/2000/svg" viewBox="0 0 48 38" id="icon3">
    <g clip-path="url(#clip0_1_58)">
      <path d="M29.1419 8.62415H41.1398V12.0695H29.1419V8.62415Z"></path>
      <path d="M29.1419 17.2375H41.1398V20.6829H29.1419V17.2375Z"></path>
      <path d="M29.1419 25.8506H41.1398V29.2959H29.1419V25.8506Z"></path>
      <path d="M44.5679 0.0111084H3.43234C2.52347 0.0120205 1.65208 0.375302 1.00941 1.02123C0.366737 1.66715 0.00528678 2.54295 0.00437927 3.45643V34.4643C0.00528678 35.3778 0.366737 36.2536 1.00941 36.8995C1.65208 37.5454 2.52347 37.9087 3.43234 37.9096H44.5679C45.4766 37.9082 46.3477 37.5448 46.9903 36.899C47.6329 36.2532 47.9945 35.3776 47.9958 34.4643V3.45643C47.9949 2.54295 47.6335 1.66715 46.9908 1.02123C46.3481 0.375302 45.4767 0.0120205 44.5679 0.0111084ZM3.43234 3.45643H22.2861V34.4643H3.43234V3.45643ZM25.7141 34.4643V3.45643H44.5679L44.5713 34.4643H25.7141Z"></path>
    </g>
    <defs>
      <clipPath id="clip0_1_58">
        <rect width="48" height="37.92" fill="white"></rect>
      </clipPath>
    </defs>
  </symbol>

  <symbol xmlns="http://www.w3.org/2000/svg" viewBox="0 0 48 45" id="icon4">
    <g clip-path="url(#clip0_1_98)">
    <path d="M23.8406 20.8022C28.1448 20.8022 31.4925 17.3069 31.4925 13.0171C31.4925 8.72735 27.9854 5.39087 23.6812 5.39087C19.377 5.39087 16.0293 8.88623 16.0293 13.0171C16.0293 17.3069 19.5364 20.8022 23.8406 20.8022ZM23.6812 8.56847C23.8406 8.56847 23.8406 8.56847 23.6812 8.56847C26.2318 8.56847 28.3042 10.6339 28.3042 13.176C28.3042 15.7181 26.2318 17.6246 23.6812 17.6246C21.1305 17.6246 19.2176 15.5592 19.2176 13.176C19.2176 10.6339 21.2899 8.56847 23.6812 8.56847Z" fill="#00A0C1"/>
    <path d="M47.4339 19.8487C44.405 17.1477 40.4197 15.7178 36.2749 15.8767H34.9996C34.6808 17.1477 34.2025 18.2599 33.5648 19.2132C34.5213 19.0543 35.3184 19.0543 36.2749 19.0543C39.3038 18.8954 42.3327 19.8487 44.7239 21.5964V33.0357H47.9122V20.3253L47.4339 19.8487Z" fill="#00A0C1"/>
    <path d="M32.6084 5.70814C33.4055 3.80158 35.6373 2.8483 37.7097 3.6427C39.6226 4.4371 40.5791 6.66141 39.782 8.72685C39.1444 10.1568 37.7097 11.1101 36.2749 11.1101C35.9561 11.1101 35.4779 11.1101 35.159 10.9512C35.3184 11.7456 35.3184 12.54 35.3184 13.1755V14.1288C35.6373 14.1288 35.9561 14.2876 36.2749 14.2876C40.2603 14.2876 43.4486 11.1101 43.4486 7.29693C43.4486 3.32494 40.2603 0.147339 36.4343 0.147339C33.8837 0.147339 31.6519 1.41838 30.3766 3.6427C31.1737 4.11934 31.9707 4.75486 32.6084 5.70814Z" fill="#00A0C1"/>
    <path d="M14.4351 19.3721C13.7975 18.4189 13.3192 17.3067 13.0004 16.0357H11.7251C7.58031 15.8768 3.59495 17.3067 0.566073 19.8488L0.0878296 20.3254V33.0358H3.27612V21.5965C5.82675 19.8488 8.69621 18.8955 11.7251 19.0544C12.6816 19.0544 13.6381 19.2133 14.4351 19.3721Z" fill="#00A0C1"/>
    <path d="M11.7251 14.1294C12.044 14.1294 12.3628 14.1294 12.6816 13.9705V13.0172C12.6816 12.2228 12.6816 11.4284 12.841 10.7929C12.5222 10.9518 12.044 10.9518 11.7251 10.9518C9.65273 10.9518 7.89917 9.20412 7.89917 7.13868C7.89917 5.07324 9.65273 3.32556 11.7251 3.32556C13.3193 3.32556 14.754 4.27884 15.3917 5.70876C16.0293 4.91436 16.9858 4.11996 17.7829 3.48444C15.7105 0.147963 11.4063 -0.964197 8.05859 1.10124C4.71088 3.16668 3.59498 7.45644 5.66737 10.7929C6.94269 12.8584 9.17449 14.1294 11.7251 14.1294Z" fill="#00A0C1"/>
    <path d="M36.9126 29.3816L36.5938 28.905C33.4055 25.4096 28.9419 23.3442 24.1594 23.5031C19.377 23.3442 14.754 25.4096 11.5657 28.905L11.2469 29.3816V41.4565C11.2469 42.8864 12.3628 44.1574 13.9569 44.1574H34.362C35.7967 44.1574 37.072 42.8864 37.072 41.4565V29.3816H36.9126ZM33.7243 40.9798H14.4351V30.4938C16.9858 27.9517 20.4929 26.6807 24.1594 26.6807C27.6666 26.5218 31.1737 27.9517 33.7243 30.4938V40.9798Z" fill="#00A0C1"/>
    </g>
    <defs>
    <clipPath id="clip0_1_98">
    <rect width="48" height="44.2105" fill="white"/>
    </clipPath>
    </defs>
    </symbol>

  <symbol xmlns="http://www.w3.org/2000/svg" viewBox="0 0 48 27" id="icon5">
  <path d="M43.1502 12.2822C42.5747 12.2864 42.0047 12.3962 41.4674 12.6064L35.7271 7.82167C35.8684 7.30005 35.9689 6.75894 35.9689 6.18858C35.9689 2.81028 33.3022 0.0949707 29.9844 0.0949707C26.6667 0.0949707 24 2.81028 24 6.18858C24 7.15381 24.2394 8.05323 24.6272 8.86246L17.6636 17.2424C17.3849 17.1893 17.1022 17.1607 16.8186 17.1571C16.3902 17.1571 15.9856 17.2302 15.593 17.3374L9.45776 11.0903C9.56548 10.693 9.63729 10.281 9.63729 9.84475C9.63729 7.14406 7.50204 4.96986 4.84973 4.96986C2.19742 4.96986 0.0621643 7.14406 0.0621643 9.84475C0.0621643 12.5454 2.19742 14.7196 4.84973 14.7196C5.27822 14.7196 5.68277 14.6465 6.07535 14.5393L12.2106 20.7864C12.0955 21.1914 12.0351 21.6104 12.0311 22.032C12.0311 24.7327 14.1663 26.9069 16.8186 26.9069C19.471 26.9069 21.6062 24.7327 21.6062 22.032C21.6062 21.4543 21.4913 20.9107 21.3118 20.3964L28.2849 12.0068C28.8282 12.1676 29.3908 12.2822 29.9844 12.2822C30.9291 12.2769 31.8589 12.0421 32.6966 11.5973L38.4393 16.382C38.3942 16.638 38.3686 16.8971 38.3627 17.1571C38.3627 19.8578 40.4979 22.032 43.1502 22.032C45.8026 22.032 47.9378 19.8578 47.9378 17.1571C47.9378 14.4564 45.8026 12.2822 43.1502 12.2822Z" fill="#00A0C1"/>
  </symbol>

  <symbol xmlns="http://www.w3.org/2000/svg" viewBox="0 0 36 48" id="icon6">
    <path d="M9.06414 33.9949C8.25307 33.1802 8.67587 33.4099 6.71961 32.8839C5.83201 32.6449 5.05174 32.1855 4.34614 31.6352L0.111605 42.0639C-0.298129 43.0736 0.467205 44.1705 1.55174 44.1292L6.46947 43.9408L9.85187 47.5296C10.5985 48.3208 11.9089 48.0742 12.3187 47.0646L17.1767 35.1002C16.1649 35.6664 15.0421 35.9983 13.8811 35.9983C12.0611 35.9983 10.3512 35.2867 9.06414 33.9949ZM35.7276 42.0639L31.4931 31.6352C30.7875 32.1864 30.0072 32.6449 29.1196 32.8839C27.1531 33.4127 27.5843 33.1821 26.7751 33.9949C25.488 35.2867 23.7772 35.9983 21.9572 35.9983C20.7961 35.9983 19.6733 35.6655 18.6616 35.1002L23.5196 47.0646C23.9293 48.0742 25.2407 48.3208 25.9864 47.5296L29.3697 43.9408L34.2875 44.1292C35.372 44.1705 36.1373 43.0727 35.7276 42.0639ZM24.5463 31.8733C25.9724 30.4155 26.1357 30.5411 28.1667 29.9852C29.4631 29.6299 30.4767 28.5939 30.8239 27.2683C31.522 24.6058 31.3409 24.9274 33.2459 22.9792C34.1951 22.0089 34.5656 20.5942 34.2184 19.2686C33.5212 16.608 33.5203 16.9792 34.2184 14.3158C34.5656 12.9902 34.1951 11.5755 33.2459 10.6052C31.3409 8.65706 31.522 8.97769 30.8239 6.31613C30.4767 4.9905 29.4631 3.95456 28.1667 3.59925C25.5645 2.88581 25.8781 3.07238 23.9713 1.12331C23.0221 0.153002 21.638 -0.226685 20.3416 0.128627C17.7404 0.841127 18.1035 0.842064 15.4976 0.128627C14.2012 -0.226685 12.8171 0.152065 11.8679 1.12331C9.96294 3.07144 10.2765 2.88581 7.67347 3.59925C6.37707 3.95456 5.36347 4.9905 5.01627 6.31613C4.31907 8.97769 4.49921 8.65706 2.59427 10.6052C1.64507 11.5755 1.2736 12.9902 1.62174 14.3158C2.31894 16.9746 2.31987 16.6033 1.62174 19.2677C1.27454 20.5933 1.64507 22.008 2.59427 22.9792C4.49921 24.9274 4.31814 24.6058 5.01627 27.2683C5.36347 28.5939 6.37707 29.6299 7.67347 29.9852C9.76227 30.5571 9.91814 30.4671 11.2929 31.8733C12.5277 33.1361 14.4513 33.3621 15.9353 32.4189C16.5288 32.0405 17.2172 31.8396 17.9201 31.8396C18.623 31.8396 19.3114 32.0405 19.9048 32.4189C21.3879 33.3621 23.3115 33.1361 24.5463 31.8733ZM9.11454 16.4946C9.11454 11.523 13.0569 7.49269 17.9196 7.49269C22.7823 7.49269 26.7247 11.523 26.7247 16.4946C26.7247 21.4661 22.7823 25.4964 17.9196 25.4964C13.0569 25.4964 9.11454 21.4661 9.11454 16.4946Z" fill="#00A0C1"/>
  </symbol>

  <symbol xmlns="http://www.w3.org/2000/svg" viewBox="0 0 48 41" id="icon7">
    <path d="M42.5886 8.52529H37.519V3.45567C37.519 2.55931 37.1629 1.69966 36.5291 1.06583C35.8952 0.432007 35.0356 0.0759277 34.1392 0.0759277H13.8608C12.9644 0.0759277 12.1047 0.432007 11.4709 1.06583C10.8371 1.69966 10.481 2.55931 10.481 3.45567V8.52529H5.41139C4.06684 8.52529 2.77736 9.05941 1.82662 10.0102C0.875886 10.9609 0.341766 12.2504 0.341766 13.5949V37.2531C0.341766 38.1495 0.697846 39.0092 1.33167 39.643C1.9655 40.2768 2.82515 40.6329 3.72151 40.6329H44.2785C45.1748 40.6329 46.0345 40.2768 46.6683 39.643C47.3021 39.0092 47.6582 38.1495 47.6582 37.2531V13.5949C47.6582 12.2504 47.1241 10.9609 46.1734 10.0102C45.2226 9.05941 43.9331 8.52529 42.5886 8.52529ZM13.8608 3.45567H34.1392V8.52529H13.8608V3.45567ZM44.2785 37.2531H3.72151V22.0443H17.2405V30.4936H30.7595V22.0443H44.2785V37.2531ZM20.6202 22.0443H27.3797V27.1139H20.6202V22.0443ZM3.72151 18.6645V13.5949C3.72151 13.1467 3.89955 12.7169 4.21647 12.4C4.53338 12.0831 4.9632 11.905 5.41139 11.905H42.5886C43.0368 11.905 43.4666 12.0831 43.7835 12.4C44.1004 12.7169 44.2785 13.1467 44.2785 13.5949V18.6645H3.72151Z" fill="#00A0C1"/>
  </symbol>

  <symbol xmlns="http://www.w3.org/2000/svg" viewBox="0 0 30 30" id="icon8">
    <path d="M17.2367 7.77151C16.7729 8.09308 16.2497 8.31905 15.6976 8.43623C15.1456 8.55342 14.5757 8.55949 14.0212 8.45407C13.4668 8.34865 12.9389 8.13385 12.4684 7.82223C11.9979 7.5106 11.5941 7.10838 11.2807 6.63904C10.9673 6.1697 10.7505 5.64263 10.643 5.08861C10.5354 4.53458 10.5393 3.96468 10.6544 3.41218C10.7695 2.85967 10.9935 2.33562 11.3133 1.8706C11.6331 1.40559 12.0423 1.00893 12.517 0.703761C13.4544 0.0846608 14.5986 -0.138187 15.6998 0.0839308C16.8009 0.306048 17.7693 0.955065 18.3933 1.88911C19.0173 2.82315 19.2462 3.96625 19.0298 5.06853C18.8135 6.17081 18.1696 7.14262 17.2388 7.77151H17.2367ZM16.0573 2.47176C15.8259 2.30528 15.5633 2.18706 15.2853 2.12415C15.0072 2.06124 14.7193 2.05493 14.4388 2.10558C14.1583 2.15622 13.8908 2.26281 13.6523 2.41897C13.4138 2.57514 13.2091 2.7777 13.0505 3.0146C12.8919 3.25149 12.7826 3.51788 12.7291 3.79789C12.6756 4.07791 12.679 4.36583 12.739 4.64451C12.7991 4.92319 12.9146 5.18694 13.0788 5.42004C13.2429 5.65315 13.4522 5.85086 13.6943 6.00139C14.162 6.28552 14.7214 6.37824 15.2558 6.26023C15.7902 6.14222 16.2585 5.82258 16.563 5.36789C16.8676 4.9132 16.985 4.35852 16.8908 3.81941C16.7966 3.2803 16.498 2.79833 16.0573 2.47389V2.47176ZM21.6036 2.53551C22.2164 2.12326 22.9539 1.93762 23.6889 2.01054C24.4239 2.08346 25.1105 2.41038 25.6304 2.93501C26.0009 3.30848 26.2741 3.76715 26.426 4.27079C26.578 4.77443 26.604 5.30766 26.5018 5.82371C26.3997 6.33975 26.1724 6.82284 25.8401 7.23061C25.5077 7.63838 25.0804 7.95837 24.5956 8.16251C24.0133 8.40598 23.3715 8.47011 22.7526 8.34669C22.1336 8.22328 21.5656 7.91794 21.1212 7.46976C20.7872 7.13405 20.5315 6.72865 20.3725 6.28259C20.2135 5.83653 20.155 5.36083 20.2013 4.88954C20.2476 4.41825 20.3975 3.96302 20.6403 3.55643C20.8831 3.14984 21.2127 2.80194 21.6057 2.53764L21.6036 2.53551ZM22.6236 5.95676C22.8231 6.15543 23.0933 6.2667 23.3749 6.2661C23.5143 6.2658 23.6523 6.23805 23.7809 6.18443C23.9096 6.13081 24.0265 6.05236 24.1249 5.95357C24.2232 5.85479 24.3012 5.73759 24.3543 5.60868C24.4073 5.47977 24.4345 5.34167 24.4342 5.20226C24.4339 5.06285 24.4062 4.92486 24.3525 4.79618C24.2989 4.66749 24.2205 4.55063 24.1217 4.45226C23.9238 4.25328 23.6564 4.13899 23.3758 4.13351C23.2357 4.13323 23.0968 4.16073 22.9674 4.21442C22.8379 4.26811 22.7204 4.34694 22.6216 4.44633C22.5228 4.54573 22.4447 4.66372 22.3918 4.7935C22.3388 4.92327 22.3122 5.06224 22.3133 5.20239C22.314 5.48539 22.4253 5.7569 22.6236 5.95889V5.95676ZM4.65455 24.3975H8.5008V26.5331H4.65455C3.98123 26.5271 3.3378 26.2542 2.8653 25.7745C2.39099 25.293 2.12533 24.6441 2.1258 23.9683V20.122C1.8397 20.1124 1.5585 20.045 1.29919 19.9237C1.03988 19.8025 0.807827 19.6299 0.61705 19.4165C0.414334 19.2112 0.255241 18.967 0.149338 18.6985C0.0434344 18.4301 -0.00709083 18.1431 0.000800442 17.8546V13.2179C0.00717544 12.2149 0.40455 11.2565 1.1058 10.5446C1.80493 9.84126 2.75055 9.43964 3.7408 9.43326H7.6508C7.1234 10.0614 6.72612 10.788 6.48205 11.571H3.7408C3.30951 11.5834 2.89915 11.7597 2.5933 12.064C2.29287 12.3729 2.1251 12.787 2.1258 13.2179V17.9609H4.2508V23.9661C4.24587 24.024 4.25275 24.0823 4.27101 24.1375C4.28928 24.1926 4.31855 24.2435 4.35705 24.287C4.44247 24.353 4.54664 24.3902 4.65455 24.3933V24.3975ZM20.167 10.5468C19.8193 10.1957 19.4057 9.91675 18.9498 9.72602C18.494 9.53529 18.0049 9.43653 17.5108 9.43539H12.2408C11.2502 9.44331 10.3029 9.84284 9.6058 10.5468C8.90455 11.2586 8.50718 12.217 8.5008 13.22V19.9733C8.4978 20.5531 8.71853 21.1118 9.11705 21.533C9.30806 21.7462 9.54016 21.9185 9.79943 22.0397C10.0587 22.161 10.3398 22.2286 10.6258 22.2385V27.1749C10.6238 27.5118 10.6885 27.8458 10.8161 28.1576C10.9438 28.4695 11.1319 28.7529 11.3696 28.9918C11.7521 29.3488 12.2344 29.5804 12.7508 29.6548H17.0008C17.5985 29.5763 18.1461 29.2797 18.5384 28.8219C18.9306 28.3642 19.1398 27.7776 19.1258 27.1749V22.2364C19.4119 22.2268 19.6931 22.1594 19.9524 22.0381C20.2117 21.9169 20.4438 21.7443 20.6346 21.5309C20.8371 21.3259 20.9961 21.082 21.102 20.814C21.2079 20.5459 21.2585 20.2592 21.2508 19.9711V13.2179C21.2523 12.2195 20.8633 11.2601 20.167 10.5446V10.5468ZM19.1258 20.0774H17.0008V27.1749C16.9987 27.2869 16.953 27.3937 16.8733 27.4724C16.837 27.5153 16.7913 27.5492 16.7396 27.5713C16.688 27.5935 16.6319 27.6032 16.5758 27.5999H13.1546C13.0435 27.5947 12.9384 27.5483 12.8598 27.4697C12.7812 27.3911 12.7347 27.2859 12.7296 27.1749V20.0774H10.6258V13.2179C10.6258 12.7865 10.7937 12.3721 11.0933 12.064C11.3992 11.7597 11.8095 11.5834 12.2408 11.571H17.5108C17.8327 11.5767 18.146 11.6762 18.4121 11.8574C18.6782 12.0386 18.8857 12.2936 19.0089 12.591C19.0898 12.7899 19.1296 13.0032 19.1258 13.2179V20.0774ZM25.0971 26.531H21.2508V24.3954H25.0758C25.1837 24.3924 25.2879 24.3552 25.3733 24.2891C25.4161 24.2473 25.4496 24.1969 25.4715 24.1413C25.4935 24.0856 25.5035 24.0259 25.5008 23.9661V17.9609H27.6258V13.2179C27.6265 12.787 27.4587 12.3729 27.1583 12.064C26.8524 11.7597 26.4421 11.5834 26.0108 11.571H23.2696C23.0256 10.788 22.6283 10.0613 22.1008 9.43326H26.0108C27.0012 9.44234 27.9481 9.84169 28.6458 10.5446C29.347 11.2565 29.7444 12.2149 29.7508 13.2179V17.8546C29.7508 18.4348 29.5319 18.9915 29.1367 19.4123C28.7414 19.8351 28.2017 20.088 27.6258 20.1199V23.9661C27.6258 24.644 27.3602 25.2921 26.8863 25.7724C26.4138 26.2521 25.7704 26.5249 25.0971 26.531ZM6.3758 1.99576C5.74346 1.99503 5.12531 2.18314 4.60057 2.536C4.07583 2.88885 3.66842 3.39037 3.43055 3.97626C3.19049 4.56195 3.12817 5.20536 3.25136 5.82623C3.37456 6.4471 3.67781 7.01797 4.1233 7.46764C4.56863 7.91678 5.13774 8.22298 5.75793 8.34712C6.37812 8.47126 7.02124 8.4077 7.60514 8.16456C8.18903 7.92142 8.68719 7.50975 9.03598 6.98212C9.38478 6.45449 9.56837 5.83486 9.5633 5.20239C9.5633 4.35239 9.22755 3.53639 8.6283 2.93501C8.33323 2.63779 7.98233 2.40181 7.59577 2.24063C7.20921 2.07944 6.79462 1.99622 6.3758 1.99576ZM6.3758 6.27126C6.23565 6.27155 6.09684 6.24405 5.96739 6.19035C5.83793 6.13666 5.72041 6.05784 5.6216 5.95844C5.5228 5.85905 5.44468 5.74105 5.39176 5.61128C5.33885 5.48151 5.31218 5.34253 5.3133 5.20239C5.31385 4.92017 5.42577 4.64959 5.62473 4.44944C5.82368 4.24928 6.0936 4.13575 6.3758 4.13351C6.65714 4.13847 6.92548 4.25287 7.12386 4.45244C7.32223 4.652 7.43503 4.92102 7.4383 5.20239C7.43775 5.4846 7.32583 5.75519 7.12688 5.95534C6.92792 6.15549 6.658 6.26902 6.3758 6.27126Z" fill="#FFA62B"/>
  </symbol>


<symbol xmlns="http://www.w3.org/2000/svg" viewBox="0 0 32 26" id="icon9">
    <path d="M29.8154 7.36456L27.8167 10.3708C28.7806 12.2933 29.2525 14.4249 29.1901 16.5746C29.1277 18.7243 28.5329 20.825 27.4592 22.6883H4.93666C3.54106 20.2672 2.96277 17.4609 3.28751 14.6853C3.61226 11.9097 4.82277 9.31265 6.73956 7.27913C8.65636 5.2456 11.1774 3.88388 13.929 3.39581C16.6806 2.90775 19.5162 3.31934 22.0154 4.56956L25.0217 2.57081C21.9609 0.608159 18.3304 -0.27131 14.7109 0.0730789C11.0913 0.417467 7.69176 1.96581 5.05609 4.47045C2.42042 6.97509 0.700875 10.2913 0.172515 13.8886C-0.355844 17.486 0.337506 21.1566 2.14166 24.3133C2.42524 24.8045 2.83243 25.2129 3.32276 25.498C3.81309 25.7831 4.36949 25.9349 4.93666 25.9383H27.4429C28.0156 25.9406 28.5787 25.7915 29.0752 25.5061C29.5718 25.2208 29.9841 24.8093 30.2704 24.3133C31.7676 21.7197 32.519 18.7627 32.4416 15.769C32.3642 12.7752 31.461 9.86108 29.8317 7.34831L29.8154 7.36456ZM13.9067 18.4796C14.2085 18.7817 14.5669 19.0214 14.9615 19.185C15.356 19.3486 15.7789 19.4327 16.206 19.4327C16.6331 19.4327 17.056 19.3486 17.4506 19.185C17.8451 19.0214 18.2036 18.7817 18.5054 18.4796L27.7029 4.68331L13.9067 13.8808C13.6045 14.1826 13.3648 14.5411 13.2012 14.9356C13.0377 15.3302 12.9535 15.7531 12.9535 16.1802C12.9535 16.6073 13.0377 17.0302 13.2012 17.4247C13.3648 17.8193 13.6045 18.1777 13.9067 18.4796Z" fill="#FFA62B"/>
  </symbol>
</svg>